<mxfile host="" modified="2020-06-14T10:48:11.713Z" agent="5.0 (X11; Linux x86_64) AppleWebKit/537.36 (KHTML, like Gecko) Code/1.46.0 Chrome/78.0.3904.130 Electron/7.3.1 Safari/537.36" etag="v0DE4bcklCiQIbGaVodY" version="13.1.3">
    <diagram id="6hGFLwfOUW9BJ-s0fimq" name="Page-1">
        <mxGraphModel dx="1238" dy="440" grid="1" gridSize="10" guides="1" tooltips="1" connect="1" arrows="1" fold="1" page="1" pageScale="1" pageWidth="827" pageHeight="1169" math="0" shadow="0">
            <root>
                <mxCell id="0"/>
                <mxCell id="1" parent="0"/>
                <mxCell id="3" value="" style="ellipse;whiteSpace=wrap;html=1;aspect=fixed;fillColor=#6a00ff;strokeColor=#3700CC;fontColor=#ffffff;fontFamily=Helvetica;" parent="1" vertex="1">
                    <mxGeometry x="-170" y="380" width="340" height="340" as="geometry"/>
                </mxCell>
                <mxCell id="11" value="middleware1" style="text;html=1;align=center;verticalAlign=middle;resizable=0;points=[];autosize=1;fontFamily=Helvetica;" parent="3" vertex="1">
                    <mxGeometry x="124.99965517241378" y="11.724137931034482" width="90" height="20" as="geometry"/>
                </mxCell>
                <mxCell id="4" value="" style="ellipse;whiteSpace=wrap;html=1;aspect=fixed;fillColor=#647687;strokeColor=#314354;fontColor=#ffffff;" parent="3" vertex="1">
                    <mxGeometry x="39" y="37.5" width="265" height="265" as="geometry"/>
                </mxCell>
                <mxCell id="5" value="" style="ellipse;whiteSpace=wrap;html=1;aspect=fixed;fillColor=#6d8764;strokeColor=#3A5431;fontColor=#ffffff;" parent="3" vertex="1">
                    <mxGeometry x="79" y="76.5" width="182" height="182" as="geometry"/>
                </mxCell>
                <mxCell id="18" value="&lt;font color=&quot;#0000cc&quot;&gt;store.dispatch&lt;br&gt;&lt;/font&gt;" style="ellipse;whiteSpace=wrap;html=1;aspect=fixed;fontFamily=Helvetica;fillColor=#bac8d3;strokeColor=#23445d;" parent="3" vertex="1">
                    <mxGeometry x="119" y="115" width="105" height="105" as="geometry"/>
                </mxCell>
                <mxCell id="15" value="middleware3" style="text;html=1;align=center;verticalAlign=middle;resizable=0;points=[];autosize=1;fontFamily=Helvetica;" parent="3" vertex="1">
                    <mxGeometry x="125" y="85" width="90" height="20" as="geometry"/>
                </mxCell>
                <mxCell id="14" value="middleware2" style="text;html=1;align=center;verticalAlign=middle;resizable=0;points=[];autosize=1;fontFamily=Helvetica;" parent="3" vertex="1">
                    <mxGeometry x="125" y="45" width="90" height="20" as="geometry"/>
                </mxCell>
                <mxCell id="7" value="" style="endArrow=classic;html=1;fontFamily=Helvetica;fontSize=20;" parent="3" edge="1">
                    <mxGeometry width="50" height="50" relative="1" as="geometry">
                        <mxPoint x="-120" y="180" as="sourcePoint"/>
                        <mxPoint x="740" y="180" as="targetPoint"/>
                    </mxGeometry>
                </mxCell>
                <mxCell id="12" value="next" style="text;strokeColor=none;fillColor=none;html=1;fontSize=20;fontStyle=1;verticalAlign=middle;align=center;" parent="3" vertex="1">
                    <mxGeometry x="-10" y="115" width="100" height="30" as="geometry"/>
                </mxCell>
                <mxCell id="20" style="edgeStyle=orthogonalEdgeStyle;rounded=0;orthogonalLoop=1;jettySize=auto;html=1;exitX=0.5;exitY=1;exitDx=0;exitDy=0;entryX=0.75;entryY=1;entryDx=0;entryDy=0;fontFamily=Helvetica;" parent="3" source="12" target="12" edge="1">
                    <mxGeometry relative="1" as="geometry"/>
                </mxCell>
                <mxCell id="21" value="next" style="text;strokeColor=none;fillColor=none;html=1;fontSize=20;fontStyle=1;verticalAlign=middle;align=center;" parent="3" vertex="1">
                    <mxGeometry x="25" y="140" width="100" height="30" as="geometry"/>
                </mxCell>
                <mxCell id="22" value="next" style="text;strokeColor=none;fillColor=none;html=1;fontSize=20;fontStyle=1;verticalAlign=middle;align=center;" parent="3" vertex="1">
                    <mxGeometry x="70" y="175" width="100" height="30" as="geometry"/>
                </mxCell>
                <mxCell id="24" value="用户" style="shape=umlActor;verticalLabelPosition=bottom;labelBackgroundColor=#ffffff;verticalAlign=top;html=1;outlineConnect=0;fontFamily=Helvetica;fontSize=20;" parent="1" vertex="1">
                    <mxGeometry x="-660" y="490" width="30" height="60" as="geometry"/>
                </mxCell>
                <mxCell id="25" value="用户动作触发 &lt;span&gt;enhancerStore.dispatch(action)&amp;nbsp;&amp;nbsp;&lt;/span&gt;&lt;br&gt;&amp;nbsp;(其实就是触发 middleware1)" style="text;html=1;align=center;verticalAlign=middle;resizable=0;points=[];autosize=1;fontSize=20;fontFamily=Helvetica;" parent="1" vertex="1">
                    <mxGeometry x="-633" y="500" width="440" height="50" as="geometry"/>
                </mxCell>
                <mxCell id="32" value="&lt;span style=&quot;color: rgb(240 , 240 , 240) ; font-family: &amp;#34;comic sans ms&amp;#34; ; font-size: 12px ; font-style: normal ; font-weight: 700 ; letter-spacing: normal ; text-indent: 0px ; text-transform: none ; word-spacing: 0px ; background-color: rgb(42 , 42 , 42) ; float: none ; display: inline&quot;&gt;此例中&lt;/span&gt;&lt;span style=&quot;color: rgb(240 , 240 , 240) ; font-family: &amp;#34;comic sans ms&amp;#34; ; font-size: 12px ; font-style: normal ; font-weight: 700 ; letter-spacing: normal ; text-indent: 0px ; text-transform: none ; word-spacing: 0px ; background-color: rgb(42 , 42 , 42) ; float: none ; display: inline&quot;&gt;middleware1函数(middleware2, middleware3函数类似)&lt;br&gt;代码如下：&lt;/span&gt;" style="html=1;whiteSpace=wrap;comic=1;strokeWidth=2;fontFamily=Comic Sans MS;fontStyle=1;align=left;" parent="1" vertex="1">
                    <mxGeometry x="-570" y="570" width="240" height="70" as="geometry"/>
                </mxCell>
                <mxCell id="33" value="&lt;div style=&quot;background-color: rgb(36 , 36 , 36) ; font-size: 16px ; line-height: 22px&quot;&gt;&lt;div style=&quot;color: rgb(204 , 204 , 204)&quot;&gt;action &lt;span style=&quot;color: rgb(204 , 130 , 66)&quot;&gt;=&amp;gt;&lt;/span&gt; {&lt;br&gt;&lt;/div&gt;&lt;div style=&quot;color: rgb(204 , 204 , 204)&quot;&gt;&lt;span style=&quot;color: rgb(204 , 130 , 66)&quot;&gt;&amp;nbsp; &amp;nbsp;&lt;/span&gt;&lt;span style=&quot;color: rgb(204 , 130 , 66)&quot;&gt;&amp;nbsp;&lt;/span&gt;console.&lt;span style=&quot;color: #ffc66d&quot;&gt;log&lt;/span&gt;(&lt;span style=&quot;color: #6a8759&quot;&gt;'will dispatch--1--next, action:'&lt;/span&gt;, next, action)&lt;/div&gt;&lt;div style=&quot;color: rgb(204 , 204 , 204)&quot;&gt;&lt;br&gt;&lt;/div&gt;&lt;div style=&quot;color: rgb(204 , 204 , 204)&quot;&gt;      &lt;span style=&quot;color: rgb(204 , 130 , 66)&quot;&gt;&amp;nbsp; &amp;nbsp;&lt;/span&gt;&lt;span style=&quot;color: rgb(204 , 130 , 66)&quot;&gt;&amp;nbsp;&lt;/span&gt;&lt;span style=&quot;color: #707070&quot;&gt;// Call the next dispatch method in the middleware chain.&lt;/span&gt;&lt;/div&gt;&lt;div&gt;      &lt;font color=&quot;#ffff00&quot;&gt;&amp;nbsp; &amp;nbsp;&amp;nbsp;&lt;b&gt;const returnValue = next(action)&lt;/b&gt;&lt;/font&gt;&lt;/div&gt;&lt;br&gt;&lt;div style=&quot;color: rgb(204 , 204 , 204)&quot;&gt;&lt;span style=&quot;color: rgb(204 , 130 , 66)&quot;&gt;&amp;nbsp; &amp;nbsp;&lt;/span&gt;&lt;span style=&quot;color: rgb(204 , 130 , 66)&quot;&gt;&amp;nbsp;&lt;/span&gt;console.&lt;span style=&quot;color: #ffc66d&quot;&gt;log&lt;/span&gt;(&lt;span style=&quot;color: #6a8759&quot;&gt;'state after dispatch--1'&lt;/span&gt;, &lt;span style=&quot;color: #ffc66d&quot;&gt;getState&lt;/span&gt;())&lt;/div&gt;&lt;br&gt;&lt;div style=&quot;color: rgb(204 , 204 , 204)&quot;&gt;      &lt;span style=&quot;color: rgb(204 , 130 , 66)&quot;&gt;&amp;nbsp; &amp;nbsp;&lt;/span&gt;&lt;span style=&quot;color: rgb(204 , 130 , 66)&quot;&gt;&amp;nbsp;&lt;/span&gt;&lt;span style=&quot;color: #707070&quot;&gt;// This will likely be the action itself, unless&lt;/span&gt;&lt;/div&gt;&lt;div style=&quot;color: rgb(204 , 204 , 204)&quot;&gt;      &lt;span style=&quot;color: #707070&quot;&gt;&amp;nbsp; &amp;nbsp; // a middleware further in chain changed it.&lt;/span&gt;&lt;/div&gt;&lt;div style=&quot;color: rgb(204 , 204 , 204)&quot;&gt;      &lt;span style=&quot;color: #cc8242&quot;&gt;&amp;nbsp; &amp;nbsp; return&lt;/span&gt; returnValue&lt;/div&gt;&lt;div style=&quot;color: rgb(204 , 204 , 204)&quot;&gt;  }&lt;/div&gt;&lt;/div&gt;" style="text;html=1;align=left;verticalAlign=middle;resizable=0;points=[];autosize=1;fontSize=20;fontFamily=Helvetica;" parent="1" vertex="1">
                    <mxGeometry x="-643" y="660" width="460" height="270" as="geometry"/>
                </mxCell>
                <mxCell id="34" value="&lt;div style=&quot;text-align: left&quot;&gt;&lt;span&gt;Redux 中间件原理图 By@若川 公众号：若川视野&lt;/span&gt;&lt;/div&gt;&lt;div style=&quot;text-align: left&quot;&gt;&lt;span&gt;博客：https://lxchuan12.cn&lt;/span&gt;&lt;/div&gt;" style="text;html=1;align=center;verticalAlign=middle;resizable=0;points=[];autosize=1;fontSize=20;fontFamily=Helvetica;" parent="1" vertex="1">
                    <mxGeometry x="-218" y="970" width="450" height="50" as="geometry"/>
                </mxCell>
                <mxCell id="38" value="&lt;div style=&quot;text-align: left&quot;&gt;&lt;span&gt;最里面的store.dispatch&lt;/span&gt;&lt;/div&gt;&lt;div style=&quot;text-align: left&quot;&gt;&lt;span&gt;是没有使用中间件增强的&lt;/span&gt;&lt;/div&gt;&lt;div style=&quot;text-align: left&quot;&gt;&lt;span&gt;也就是const store = Redux.createStore(reducer)&lt;/span&gt;&lt;/div&gt;" style="text;html=1;align=center;verticalAlign=middle;resizable=0;points=[];autosize=1;fontSize=20;fontFamily=Helvetica;" parent="1" vertex="1">
                    <mxGeometry x="170" y="405" width="450" height="80" as="geometry"/>
                </mxCell>
                <mxCell id="39" value="enhancerStore.dispatch(action) 之后的代码" style="text;html=1;align=center;verticalAlign=middle;resizable=0;points=[];autosize=1;fontSize=20;fontFamily=Helvetica;" parent="1" vertex="1">
                    <mxGeometry x="180" y="510" width="410" height="30" as="geometry"/>
                </mxCell>
                <mxCell id="40" value="&lt;div style=&quot;color: rgb(204 , 204 , 204) ; background-color: rgb(36 , 36 , 36) ; font-weight: 300 ; font-size: 16px ; line-height: 22px&quot;&gt;&lt;div&gt;&lt;span style=&quot;color: #cc8242&quot;&gt;const&lt;/span&gt;&lt;span style=&quot;color: #cccccc&quot;&gt; enhancerStore = Redux.&lt;/span&gt;&lt;span style=&quot;color: #ffc66d&quot;&gt;createStore&lt;/span&gt;&lt;span style=&quot;color: #cccccc&quot;&gt;(&lt;/span&gt;&lt;/div&gt;&lt;div&gt;&lt;span style=&quot;color: #cccccc&quot;&gt;&amp;nbsp; &amp;nbsp; reducer, &lt;/span&gt;&lt;/div&gt;&lt;div&gt;&lt;span style=&quot;color: #cccccc&quot;&gt;&amp;nbsp; &amp;nbsp; Redux.&lt;/span&gt;&lt;span style=&quot;color: #ffc66d&quot;&gt;applyMiddleware&lt;/span&gt;&lt;span style=&quot;color: #cccccc&quot;&gt;(logger1, logger2, logger3)&lt;/span&gt;&lt;/div&gt;&lt;div&gt;&lt;span style=&quot;color: #cccccc&quot;&gt;)&lt;/span&gt;&lt;/div&gt;&lt;/div&gt;" style="text;whiteSpace=wrap;html=1;fontSize=20;fontFamily=Helvetica;" parent="1" vertex="1">
                    <mxGeometry x="-608" y="350" width="390" height="100" as="geometry"/>
                </mxCell>
                <mxCell id="41" value="&lt;br&gt;" style="text;html=1;align=center;verticalAlign=middle;resizable=0;points=[];autosize=1;fontSize=20;fontFamily=Helvetica;" parent="40" vertex="1">
                    <mxGeometry x="261" y="63" width="20" height="30" as="geometry"/>
                </mxCell>
                <mxCell id="43" value="&lt;br&gt;" style="text;html=1;align=center;verticalAlign=middle;resizable=0;points=[];autosize=1;fontSize=20;fontFamily=Helvetica;" parent="1" vertex="1">
                    <mxGeometry x="-270" y="460" width="20" height="30" as="geometry"/>
                </mxCell>
                <mxCell id="45" value="&lt;div style=&quot;color: rgb(204 , 204 , 204) ; background-color: rgb(36 , 36 , 36) ; font-size: 16px ; line-height: 22px&quot;&gt;&lt;div&gt;&lt;span style=&quot;color: #cc8242&quot;&gt;function&lt;/span&gt; &lt;span style=&quot;color: #ffc66d&quot;&gt;logger1&lt;/span&gt;({ getState }) {&lt;/div&gt;&lt;div&gt;&lt;span style=&quot;color: #cc8242&quot;&gt;&amp;nbsp; &amp;nbsp; return&lt;/span&gt; next &lt;span style=&quot;color: #cc8242&quot;&gt;=&amp;gt;&lt;/span&gt; action &lt;span style=&quot;color: #cc8242&quot;&gt;=&amp;gt;&lt;/span&gt; {&lt;/div&gt;&lt;div&gt;&amp;nbsp; &amp;nbsp; // 和上面一样，所以省略...&lt;/div&gt;&lt;div&gt;&amp;nbsp; &amp;nbsp; }&lt;/div&gt;&lt;div&gt;}&lt;br&gt;&lt;div style=&quot;line-height: 22px&quot;&gt;&lt;span style=&quot;color: #707070&quot;&gt;// logger1和logger2、logger3类似&lt;/span&gt;&lt;/div&gt;&lt;/div&gt;&lt;/div&gt;" style="text;html=1;align=left;verticalAlign=middle;resizable=0;points=[];autosize=1;fontSize=20;fontFamily=Helvetica;" parent="1" vertex="1">
                    <mxGeometry x="-543" y="940" width="260" height="140" as="geometry"/>
                </mxCell>
            </root>
        </mxGraphModel>
    </diagram>
</mxfile>